<?xml version="1.0" encoding="utf-8"?>
<!-- Generator: Adobe Illustrator 25.0.1, SVG Export Plug-In . SVG Version: 6.00 Build 0)  -->
<svg version="1.1" id="Warstwa_1" xmlns="http://www.w3.org/2000/svg" xmlns:xlink="http://www.w3.org/1999/xlink" x="0px" y="0px"
	 viewBox="0 0 568.04 417.32" style="enable-background:new 0 0 568.04 417.32;" xml:space="preserve">
<style type="text/css">
	.st0{clip-path:url(#SVGID_2_);fill-rule:evenodd;clip-rule:evenodd;}
</style>
<g>
	<defs>
		<rect id="SVGID_1_" width="568.04" height="417.32"/>
	</defs>
	<clipPath id="SVGID_2_">
		<use xlink:href="#SVGID_1_"  style="overflow:visible;"/>
	</clipPath>
	<path class="st0" d="M194.99,226.1c10.58-2.3,24.09-3.86,40.86-4.36c24.23-2.84,47.45-6.74,70.51-15.66
		c47.19-19.83,45.73-56.33,1.17-61.93l-37.29-5.41c233.09-22.21,128.18,127.04-54,100.13c-47.85-1.42-16.7,40.55,65.38,34.15
		c-88.94,22.78-160.22-29.43-89.04-46.37L194.99,226.1z"/>
	<path class="st0" d="M196.51,37.85c36.42-100.46,202.98,26.25,80.82,90.91c-30.74,14.33-33.55,26.37,3.8,35.11v0
		c11.69,3.86,18.51,15.88-3.38,32.36c11.76-8.92,15.18-26.09-11.46-31.92h0c-1.5-0.23-2.93-0.5-4.3-0.8l-0.08-0.01h0.02
		c-26.14-5.75-28.74-23.28-13.8-32.59C339.43,62.62,248.03-27.85,196.51,37.85"/>
	<path class="st0" d="M0,295.1h31.24c6.12,0,11.68,0.73,16.67,2.17c4.99,1.45,9.48,4.21,13.45,8.29c2.25,2.36,4.27,5.37,6.04,9.02
		c1.77,3.65,2.66,7.52,2.66,11.6c0,5.05-1.15,9.64-3.46,13.77c-2.31,4.13-5.5,7.17-9.58,9.1c6.01,1.83,10.9,5.26,14.66,10.31
		c3.76,5.05,5.64,11.22,5.64,18.52c0,5.8-1.29,11.17-3.87,16.11c-2.04,3.97-4.97,7.57-8.78,10.79c-3.81,3.22-8.75,5.58-14.82,7.09
		c-6.07,1.5-12.48,2.25-19.25,2.25H0V295.1z M33.66,316.52h-11.6v24.32h9.66c3.97,0,7.25-0.64,9.83-1.93
		c4.29-2.15,6.44-5.8,6.44-10.95c0-3.86-1.42-6.74-4.27-8.62C40.88,317.46,37.53,316.52,33.66,316.52 M22.06,362.26v30.44h12.24
		c5.9,0,10.74-1.23,14.49-3.7c4.3-2.79,6.44-6.82,6.44-12.08c0-5.05-2.15-8.86-6.44-11.43c-3.54-2.15-8.05-3.22-13.53-3.22H22.06z
		 M135.45,322c13.2,0,24.29,4.67,33.26,14.01c8.97,9.34,13.45,20.56,13.45,33.66c0,12.88-4.62,24-13.85,33.34
		c-9.23,9.34-20.45,14.01-33.66,14.01c-12.89,0-24-4.62-33.34-13.85c-9.34-9.23-14.01-20.35-14.01-33.34
		c0-13.53,4.7-24.88,14.09-34.06C110.78,326.59,122.13,322,135.45,322 M134.64,342.94c-6.87,0-12.91,2.55-18.12,7.65
		c-5.21,5.1-7.81,11.46-7.81,19.09c0,7.19,2.5,13.4,7.49,18.6c4.99,5.21,11.14,7.81,18.44,7.81s13.48-2.47,18.52-7.41
		c5.05-4.94,7.57-11.22,7.57-18.84c0-7.41-2.52-13.74-7.57-19.01C148.12,345.57,141.94,342.94,134.64,342.94 M194.23,414.12V324.9
		h19.49v8.37c2.68-4.19,5.56-7.11,8.62-8.78c3.06-1.66,7.22-2.5,12.48-2.5v20.78c-5.05,0-9.4,1.4-13.04,4.19
		c-2.68,2.15-4.38,4.67-5.07,7.57c-0.7,2.9-1.05,6.71-1.05,11.43v48.16H194.23z M315.18,332.63c3.65,3.76,6.2,8.11,7.65,13.04
		c1.45,4.94,2.17,11.33,2.17,19.16v49.28h-21.42v-46.38c0-7.09-1.18-12.72-3.54-16.91c-3.01-5.26-7.73-7.89-14.17-7.89
		c-6.44,0-11.27,2.36-14.49,7.09c-2.79,4.08-4.19,9.56-4.19,16.43v47.67h-21.42V324.9h19.81v8.37c3.22-3.76,6.82-6.58,10.79-8.46
		c3.97-1.88,8.59-2.82,13.85-2.82c4.72,0,9.23,0.91,13.53,2.74C308.04,326.56,311.85,329.19,315.18,332.63 M342.4,295.1h21.42v19.49
		H342.4V295.1z M342.4,324.9h21.42v89.22H342.4V324.9z M421.64,322c6.12,0,11.89,1.37,17.31,4.11c5.42,2.74,9.69,6.58,12.8,11.52
		V324.9h19.65v89.22h-19.65v-12.24c-2.9,3.86-6.71,7.14-11.43,9.83c-6.12,3.54-12.62,5.31-19.49,5.31
		c-12.88,0-23.38-4.51-31.49-13.53c-8.11-9.02-12.16-20.29-12.16-33.82c0-13.21,4.21-24.45,12.64-33.74
		C398.26,326.64,408.86,322,421.64,322 M425.34,342.94c-8.05,0-14.52,2.61-19.41,7.81c-4.88,5.21-7.33,11.73-7.33,19.57
		c0,7.19,2.55,13.29,7.65,18.28c5.1,4.99,11.41,7.49,18.92,7.49c7.84,0,14.12-2.58,18.84-7.73c4.72-5.15,7.09-11.49,7.09-19
		s-2.36-13.8-7.09-18.84C439.3,345.46,433.07,342.94,425.34,342.94 M487.35,295.1h21.42v71.83l28.67-42.04h25.28l-32.21,43.64
		l37.52,45.58h-28.67l-30.6-41.71v41.71h-21.42V295.1z"/>
</g>
</svg>
